# xmcd
# Track frame offsets:
# 150
# 15952
# 37455
# 51050
# 60807
# 73780
# 92885
# 106207
# 118097
# 134345
# 151642
# 170812
# 188460
# 203895
# 216980
# 241480
#
# Disc length: 3696 seconds
# Revision: 0
# Processed by: cddbd v1.5.1PL0 Copyright (c) Steve Scherf et al.
# Submitted via: VisiTrax 2.9.10.228 - For more info visit www.synapsa.com
#
DISCID=dd0e6e10
DTITLE=Various Artist - Tropicana Dance
DYEAR=1900
DGENRE=Samba
TTITLE0=Wilfrido Vargas - A mover la colita
TTITLE1=Banda Blanca - Sopa de Caracol
TTITLE2=Sound Caribeno - Ran Kan KAn
TTITLE3=The champs - Tequila
TTITLE4=Los lobos - La Bamba
TTITLE5=Carlos Santana - Oye Como Va
TTITLE6=Miriam Makeba - Pata Pata
TTITLE7=Sergio Mendes - Mas que nada
TTITLE8=Arrow - Hot hot hot
TTITLE9=Los Del Mar - Macarena
TTITLE10=Gary Low - La collegiala
TTITLE11=Tequila and Marijuana - Tequila and Marijuana
TTITLE12=Banda Del Sol - Lambada
TTITLE13=Mexcal - Que te la Pongo
TTITLE14=Cafe' latino - La cosa loca
TTITLE15=Ruben Blades - Muevete
EXTD=
EXTT0=
EXTT1=
EXTT2=
EXTT3=
EXTT4=
EXTT5=
EXTT6=
EXTT7=
EXTT8=
EXTT9=
EXTT10=
EXTT11=
EXTT12=
EXTT13=
EXTT14=
EXTT15=
PLAYORDER=
